<?xml version="1.0" standalone="no"?>
<!DOCTYPE svg PUBLIC "-//W3C//DTD SVG 20010904//EN"
 "http://www.w3.org/TR/2001/REC-SVG-20010904/DTD/svg10.dtd">
<svg version="1.0" xmlns="http://www.w3.org/2000/svg"
 width="763.000000pt" height="763.000000pt" viewBox="0 0 763.000000 763.000000"
 preserveAspectRatio="xMidYMid meet">
<metadata>
Created by potrace 1.14, written by Peter Selinger 2001-2017
</metadata>
<g transform="translate(0.000000,763.000000) scale(0.100000,-0.100000)"
fill="#000000" stroke="none">
<path d="M1389 7626 c-2 -2 -26 -6 -54 -10 -112 -13 -274 -54 -365 -93 -84
-35 -187 -87 -237 -119 -29 -19 -57 -34 -62 -34 -5 0 -11 -3 -13 -7 -1 -5 -29
-27 -61 -51 -62 -46 -212 -193 -262 -256 -59 -74 -141 -205 -177 -282 -67
-145 -85 -196 -117 -334 -11 -47 -24 -98 -28 -115 -12 -46 -14 -4908 -2 -4980
5 -33 12 -71 15 -85 2 -14 7 -41 10 -60 28 -167 154 -435 291 -617 30 -41 177
-189 234 -238 68 -57 206 -144 310 -193 149 -71 262 -106 449 -140 19 -3 1133
-7 2475 -8 2385 -3 2443 -2 2554 17 318 54 604 202 831 429 84 84 200 228 200
249 0 6 4 11 8 11 21 0 163 310 187 410 15 61 35 166 44 225 11 82 10 4920 -2
4975 -4 19 -12 56 -18 81 -6 26 -12 53 -13 60 -5 32 -37 135 -46 151 -6 10
-10 23 -10 29 0 11 -53 131 -70 159 -5 8 -17 29 -25 47 -49 96 -150 228 -255
333 -238 239 -531 385 -870 435 -79 11 -503 14 -2506 14 -1326 1 -2413 -1
-2415 -3z"/>
</g>
</svg>
